<?xml version="1.0" standalone="no"?>
<!DOCTYPE svg PUBLIC "-//W3C//DTD SVG 20010904//EN"
 "http://www.w3.org/TR/2001/REC-SVG-20010904/DTD/svg10.dtd">
<svg version="1.0" xmlns="http://www.w3.org/2000/svg"
 width="6185.000000pt" height="1458.000000pt" viewBox="0 0 6185.000000 1458.000000"
 preserveAspectRatio="xMidYMid meet">
<metadata>
Created by potrace 1.15, written by Peter Selinger 2001-2017
</metadata>
<g transform="translate(0.000000,1458.000000) scale(0.100000,-0.100000)"
fill="#000000" stroke="none">
<path d="M0 7290 l0 -7290 9795 0 9795 0 0 7290 0 7290 -9795 0 -9795 0 0
-7290z m11360 7089 c96 -16 202 -35 235 -40 213 -36 593 -134 774 -200 620
-227 1129 -680 1442 -1283 150 -290 230 -537 271 -836 20 -144 17 -676 -5
-860 -66 -563 -196 -1044 -466 -1725 -29 -71 -61 -148 -71 -171 -11 -23 -20
-44 -20 -48 0 -4 -11 -31 -24 -59 -13 -29 -29 -69 -37 -89 -7 -21 -17 -38 -21
-38 -4 0 -8 -3 -7 -7 2 -17 -14 -53 -21 -48 -5 3 -6 -5 -2 -17 3 -14 2 -19 -7
-14 -7 4 -14 -2 -19 -15 -11 -29 -99 -55 -362 -108 -332 -68 -421 -76 -800
-76 -372 1 -456 8 -774 71 -360 71 -704 192 -1031 363 -223 117 -355 201 -355
228 0 8 -4 11 -10 8 -5 -3 -10 -1 -10 4 0 6 3 11 8 11 4 0 7 46 8 103 3 556
146 1840 285 2557 127 654 299 1270 476 1705 91 224 248 537 301 598 20 23 39
22 242 -14z m-2816 -255 c3 -8 2 -12 -4 -9 -6 3 -10 10 -10 16 0 14 7 11 14
-7z m30 -89 c-4 -8 1 -17 10 -21 9 -3 16 -15 16 -25 0 -10 5 -19 10 -19 6 0
10 -7 10 -16 0 -8 13 -43 29 -77 34 -72 60 -131 71 -167 5 -14 20 -56 35 -95
64 -169 174 -530 244 -795 77 -298 195 -882 241 -1195 11 -77 23 -151 25 -165
9 -50 75 -591 95 -781 34 -322 56 -627 48 -650 -5 -12 -4 -27 0 -33 5 -6 6
-22 3 -35 -6 -22 -11 -19 -79 54 -297 318 -569 750 -740 1175 -185 461 -268
868 -279 1375 -11 479 48 885 192 1321 39 120 58 164 71 164 2 0 1 -7 -2 -15z
m7346 -2691 c0 -15 -127 -311 -180 -419 -198 -403 -447 -744 -786 -1077 -116
-114 -326 -298 -339 -298 -2 0 -7 5 -10 10 -4 6 -1 9 7 8 7 -2 12 5 12 14 -1
10 3 16 10 15 6 -1 11 6 11 15 0 9 12 30 27 46 15 17 24 33 21 36 -9 8 28 47
38 40 5 -3 6 3 2 12 -5 13 -3 15 7 9 9 -6 11 -4 5 5 -5 8 -2 17 6 24 8 6 27
31 41 56 14 25 34 55 45 67 10 12 38 52 63 88 44 65 89 128 110 152 5 7 10 16
10 22 0 5 3 11 8 13 4 2 20 23 37 48 16 25 33 47 36 50 3 3 18 23 32 45 14 22
51 74 82 115 30 41 66 91 79 110 13 19 74 103 135 185 62 83 120 160 129 173
9 13 24 32 33 43 9 11 27 35 40 54 13 19 27 35 32 35 4 0 7 4 7 10 0 12 65 98
91 121 11 9 19 22 19 28 0 6 7 14 15 17 8 4 15 12 15 20 0 8 6 13 12 12 7 -2
14 7 16 20 2 12 7 22 12 22 13 0 50 42 45 50 -2 4 2 7 10 7 8 0 15 -1 15 -3z
m-6483 -1596 c-3 -7 -5 -2 -5 12 0 14 2 19 5 13 2 -7 2 -19 0 -25z m600 -635
c-3 -10 -5 -4 -5 12 0 17 2 24 5 18 2 -7 2 -21 0 -30z"/>
<path d="M22260 6030 l0 -3530 19500 0 19500 0 0 3530 0 3530 -19500 0 -19500
0 0 -3530z"/>
</g>
</svg>
